<svg xmlns="http://www.w3.org/2000/svg" xmlns:xlink="http://www.w3.org/1999/xlink" id="svg77" width="930.137" height="236.493"><defs id="defs26"><style id="style2">.cls-2{fill:#2d2b70}.cls-8{mix-blend-mode:overlay}</style><linearGradient id="linear-gradient" x1="566.13" y1="409.16" x2="566.13" y2="493.17" gradientUnits="userSpaceOnUse"><stop offset="0" stop-color="#f58020" id="stop4"/><stop offset="1" stop-color="#fdeb01" id="stop6"/></linearGradient><linearGradient id="linear-gradient-2" x1="499.96" y1="368.93" x2="706.74" y2="368.93" gradientUnits="userSpaceOnUse"><stop offset="0" stop-color="#ffc50d" id="stop9"/><stop offset="1" stop-color="#fdeb01" id="stop11"/></linearGradient><linearGradient id="linear-gradient-3" x1="448.32" y1="210.56" x2="448.32" y2="599.59" gradientUnits="userSpaceOnUse"><stop offset="0" stop-color="#3fc6f1" id="stop14"/><stop offset="1" stop-color="#4063ae" id="stop16"/></linearGradient><linearGradient id="linear-gradient-4" x1="692.72" y1="464.03" x2="515.73" y2="367.2" gradientUnits="userSpaceOnUse"><stop offset="0" stop-color="#fff" id="stop19"/><stop offset="1" stop-color="#fff" stop-opacity="0" id="stop21"/></linearGradient><linearGradient id="linear-gradient-5" x1="300.94" y1="599.45" x2="346.32" y2="539.48" xlink:href="#linear-gradient-3"/><linearGradient id="linear-gradient-6" x1="627.42" y1="554.45" x2="351.38" y2="472.28" xlink:href="#linear-gradient-4"/><linearGradient xlink:href="#linear-gradient-3" id="linearGradient914" gradientUnits="userSpaceOnUse" x1="448.32" y1="210.56" x2="448.32" y2="599.59"/><linearGradient xlink:href="#linear-gradient-4" id="linearGradient916" gradientUnits="userSpaceOnUse" x1="692.72" y1="464.03" x2="515.73" y2="367.2"/></defs><g id="g75" style="isolation:isolate" transform="translate(-193.568 -88.478)"><g id="Your_design" data-name="Your design"><g id="g896" transform="translate(482.995 -323.662)"><path id="path30" transform="translate(-188.17 -200)" d="M237.86 800a55.1 55.1 0 0 1-16.37-2.42 47.3 47.3 0 0 1-14.34-7.26 50.3 50.3 0 0 1-11.35-11.82 57.32 57.32 0 0 1-7.63-16.28l23.63-9.31a36.14 36.14 0 0 0 9.13 16.66q6.51 6.6 17.12 6.6a27.39 27.39 0 0 0 7.54-1 22.37 22.37 0 0 0 6.51-3 14.56 14.56 0 0 0 4.56-4.94 13.76 13.76 0 0 0 1.68-6.89 16.55 16.55 0 0 0-1.31-6.7 15.59 15.59 0 0 0-4.37-5.58 39.27 39.27 0 0 0-8-5 124.92 124.92 0 0 0-12.19-5l-8.19-3a63.58 63.58 0 0 1-10.89-5 47.75 47.75 0 0 1-9.95-7.63 37.49 37.49 0 0 1-7.36-10.52 31.42 31.42 0 0 1-2.88-13.68 35 35 0 0 1 3.07-14.61 35.84 35.84 0 0 1 8.73-11.95 41.1 41.1 0 0 1 13.59-8 51.11 51.11 0 0 1 17.59-2.89 50.47 50.47 0 0 1 17.4 2.71 42.6 42.6 0 0 1 12.47 6.88 38.35 38.35 0 0 1 8.28 9.21 44.78 44.78 0 0 1 4.66 9.5l-22.16 9.3a23.43 23.43 0 0 0-6.79-10q-4.92-4.47-13.49-4.47c-5.46 0-10 1.27-13.59 3.82a11.68 11.68 0 0 0-5.39 10c0 4 1.73 7.35 5.21 10.15 3.48 2.8 9 5.48 16.56 8.1l8.38 2.79a96.24 96.24 0 0 1 14.61 6.42 45.78 45.78 0 0 1 11.35 8.65 35.38 35.38 0 0 1 7.32 11.35 40.25 40.25 0 0 1 2.46 14.81q0 10.42-4.19 18a38.19 38.19 0 0 1-10.7 12.38 46.34 46.34 0 0 1-14.7 7.26 56.48 56.48 0 0 1-16.01 2.36z" class="cls-2" fill="#2d2b70"/><path id="path32" transform="translate(-188.17 -200)" d="M324 720.72h1.49a30.9 30.9 0 0 1 11.54-10.89 33.71 33.71 0 0 1 16.56-4 38.06 38.06 0 0 1 15.08 2.79 27.52 27.52 0 0 1 10.7 7.91 35 35 0 0 1 6.33 12.28 55.77 55.77 0 0 1 2.14 15.91V800h-24.35v-52.3q0-9.86-4.37-14.61t-12.76-4.75a17.72 17.72 0 0 0-8.84 2.15 20.8 20.8 0 0 0-6.51 5.76 26.11 26.11 0 0 0-4.09 8.57 38.46 38.46 0 0 0-1.4 10.51V800h-24.38v-91.2H324z" class="cls-2" fill="#2d2b70"/><path id="path34" transform="translate(-188.17 -200)" d="M421.55 696.52a15.67 15.67 0 0 1-14.42-9.52 16.18 16.18 0 0 1 0-12.28 15.71 15.71 0 0 1 3.35-4.94 15.82 15.82 0 0 1 11.07-4.56 15.38 15.38 0 0 1 11.17 4.56 15.51 15.51 0 0 1 0 22.15 15.38 15.38 0 0 1-11.17 4.59z" class="cls-2" fill="#2d2b70"/><path id="rect36" class="cls-2" fill="#2d2b70" d="M221.29 508.8h24.38V600h-24.38z"/><path id="polygon38" class="cls-2" fill="#2d2b70" d="M324.02 508.8h30.15v1.49l-33.87 32.94 36.66 55.28V600h-28.84l-24.94-40.02-10.8 10.61V600h-24.37V466.74h24.37v72.59h1.12z"/><path id="polygon40" class="cls-2" fill="#2d2b70" d="M422.66 508.8h30.15v1.49l-33.87 32.94 36.66 55.28V600h-28.85l-24.94-40.02-10.79 10.61V600h-24.38V466.74h24.38v72.59h1.12z"/><path id="path42" transform="translate(-188.17 -200)" d="M735.53 731.71a43 43 0 0 0-8.74-15.19 40.1 40.1 0 0 0-14.33-10 49.59 49.59 0 0 0-19.54-3.63 45.78 45.78 0 0 0-19.1 3.91 47.22 47.22 0 0 0-24.85 26 50.16 50.16 0 0 0-3.53 18.68 51.13 51.13 0 0 0 3.63 19.44 46 46 0 0 0 25.51 25.51 50 50 0 0 0 19.26 3.57q15.43 0 26.13-6.89A50.74 50.74 0 0 0 737 775l-20.3-10a27.32 27.32 0 0 1-8.64 9.6c-3.67 2.53-8.26 3.8-13.85 3.8a30.08 30.08 0 0 1-8.4-1.2 22.12 22.12 0 0 1-7.51-3.91 23.66 23.66 0 0 1-5.79-6.68 25.83 25.83 0 0 1-3-9.6h68.67a12.8 12.8 0 0 1 .17-2.06 11.41 11.41 0 0 1 .21-2.06v-2.22a58.2 58.2 0 0 0-3.03-18.96zm-64.76 8a23.49 23.49 0 0 1 8.37-12.47 22.52 22.52 0 0 1 13.78-4.46 24.47 24.47 0 0 1 9.56 1.68 21.7 21.7 0 0 1 6.72 4.28 19 19 0 0 1 4.08 5.59 15.24 15.24 0 0 1 1.58 5.38z" class="cls-2" fill="#2d2b70"/><path id="path44" transform="translate(-188.17 -200)" d="M761.4 726.67h-16v-20.85h16v-27.91h24.37v27.91h22.34v20.85h-22.34v36.44a26.12 26.12 0 0 0 .66 6 9.76 9.76 0 0 0 2.51 4.7 9.22 9.22 0 0 0 7.45 3.07 13.53 13.53 0 0 0 8.61-2.38l6.88 21.4a40.2 40.2 0 0 1-9.21 3.07 53.84 53.84 0 0 1-10.88 1 33.4 33.4 0 0 1-12.39-2.18 26.58 26.58 0 0 1-9.21-6q-8.75-8.55-8.74-24.32z" class="cls-2" fill="#2d2b70"/></g><g id="g912" transform="translate(149.004 93.479) scale(.54781)"><path id="path46" transform="translate(-188.17 -200)" d="M679 510.12c0 .09 0 .09-.19.19a.91.91 0 0 0 .09-.48.34.34 0 0 1 .1.29z" class="cls-2" fill="#2d2b70"/><path id="path48" transform="translate(-188.17 -200)" d="M678.89 509.83a.91.91 0 0 1-.09.48c.19-.1.19-.1.19-.19a.34.34 0 0 0-.1-.29z" class="cls-2" fill="#2d2b70"/><path id="path50" transform="translate(-188.17 -200)" d="M679 510.12c0 .09 0 .09-.19.19a.91.91 0 0 0 .09-.48.34.34 0 0 1 .1.29z" class="cls-2" fill="#2d2b70"/><path id="path52" transform="translate(-188.17 -200)" d="M679 510.12c0 .09 0 .09-.19.19a.91.91 0 0 0 .09-.48.34.34 0 0 1 .1.29z" class="cls-2" fill="#2d2b70"/><path id="path54" transform="translate(-188.17 -200)" d="M632.3 454.62a206.27 206.27 0 0 1-109.46 46.59A205.25 205.25 0 0 1 500 406.68a205.75 205.75 0 0 1 132.3 47.94z" fill="url(#linear-gradient)"/><path id="path56" transform="translate(-188.17 -200)" d="M699.18 351.28a206.32 206.32 0 0 0-95.78-123.53 206.49 206.49 0 0 0-87 98.17 204.39 204.39 0 0 0-16.4 80.76 207 207 0 0 1 178.89 103.15.34.34 0 0 1 .1.29 206.7 206.7 0 0 0 20.19-158.84z" fill="url(#linear-gradient-2)"/><path id="path58" transform="translate(-188.17 -200)" d="M603.37 585.71A206.76 206.76 0 0 1 321 510.12c-3-5.08-5.65-10.25-8.13-15.6-.77-1.63-1.25-2.68-1.34-3l-.1-.1a204.93 204.93 0 0 1-17.89-74.15 22.26 22.26 0 0 1-.1-2.58v-.1c-.19-2.58-.19-5.26-.19-7.94q0-5.31.29-10.62a203.13 203.13 0 0 1 7.27-44.78C325 264 405 200 499.94 200a204.88 204.88 0 0 1 103.43 27.75 206.47 206.47 0 0 0-87 98.17 206.57 206.57 0 0 0 87 259.79z" fill="url(#linearGradient914)"/><circle id="circle60" r="46.56" cy="106.76" cx="247.6" fill="#fff"/><path id="path62" transform="translate(-188.17 -200)" d="M435.81 277.84a28.92 28.92 0 1 0 28.84 28.92 11.83 11.83 0 0 0-.14-2.22 16.92 16.92 0 0 1-25.3-14.65 16.66 16.66 0 0 1 4.14-11 28.76 28.76 0 0 0-7.54-1.05z" fill="#231f20"/><g id="g66" class="cls-8" style="mix-blend-mode:overlay"><path id="path64" transform="translate(-188.17 -200)" d="M678.89 508.68v1.15A207 207 0 0 0 500 406.68a204.38 204.38 0 0 1 16.45-80.76c63 12.35 115.21 50.71 142.38 102.1a172.75 172.75 0 0 1 20.06 80.66z" fill="url(#linearGradient916)"/></g><path id="path68" transform="translate(-188.17 -200)" d="M303.21 613.45c42.58-37.22 16.36-103.82 9.67-118.93 2.48 5.35 5.16 10.52 8.13 15.6a205 205 0 0 0 63.53 68c-28.89 31.22-81.33 35.33-81.33 35.33z" fill="url(#linear-gradient-5)"/><g id="g72" class="cls-8" style="mix-blend-mode:overlay"><path id="path70" transform="translate(-188.17 -200)" d="M603.4 585.71A206.72 206.72 0 0 1 293.58 417.3a22.26 22.26 0 0 1-.1-2.58v-.1c-.19-2.58-.19-5.26-.19-7.94 0-3.54.09-7.08.29-10.62a203.13 203.13 0 0 1 7.27-44.78 196.79 196.79 0 0 0 13.87 36.26A206.88 206.88 0 0 0 500 502.46a200.23 200.23 0 0 0 22.87-1.25 205.82 205.82 0 0 0 80.53 84.5z" fill="url(#linear-gradient-6)"/></g></g></g></g></svg>